<svg version="1.1" id="Layer_1" xmlns="http://www.w3.org/2000/svg" xmlns:xlink="http://www.w3.org/1999/xlink" x="0px" y="0px"
	 width="100%" viewBox="0 0 1563 1563" enable-background="new 0 0 1563 1563" xml:space="preserve">
<path fill="#000000" opacity="1.000000" stroke="none" 
	d="
M716.000000,1564.000000 
	C477.333374,1564.000000 239.166748,1564.000000 1.000096,1564.000000 
	C1.000064,1043.000122 1.000064,522.000244 1.000032,1.000306 
	C521.999756,1.000204 1042.999512,1.000204 1563.999512,1.000102 
	C1563.999634,521.999695 1563.999634,1042.999390 1563.999756,1563.999512 
	C1281.500000,1564.000000 999.000000,1564.000000 716.000000,1564.000000 
M801.107605,889.589417 
	C801.288269,890.045227 801.344116,890.764282 801.667969,890.917847 
	C807.956848,893.899780 813.971558,897.602966 821.582397,895.156555 
	C828.544983,892.918579 835.722595,891.349304 843.499023,889.157898 
	C844.256470,889.074219 845.013855,888.990540 846.441345,888.935486 
	C846.971558,888.597961 847.501770,888.260437 848.743103,887.706970 
	C884.696472,875.748474 915.879272,856.126709 942.741150,829.460999 
	C957.692993,814.618347 970.242798,797.950195 980.779602,779.783691 
	C988.618713,766.268250 995.506042,752.270142 1000.006897,736.813599 
	C1001.684326,729.573303 1002.997498,722.222839 1005.143921,715.124329 
	C1007.202087,708.317627 1004.786377,704.066345 998.899048,700.137573 
	C1000.204773,688.497864 1002.127258,676.887329 1002.679688,665.211975 
	C1003.643555,644.838928 1001.625488,624.670044 997.089355,604.705566 
	C985.663635,554.419006 960.120117,512.619629 921.313110,479.021729 
	C903.169250,463.313324 882.728455,450.934235 860.423279,441.784576 
	C845.349976,435.601410 829.949402,430.520508 813.816650,428.058624 
	C804.935608,426.703369 795.977356,425.389496 787.020447,425.103088 
	C773.015930,424.655304 758.949219,424.526367 744.973999,425.358093 
	C735.616699,425.915009 726.372314,428.369659 716.756775,429.246521 
	C715.496948,428.474976 714.082520,427.873474 713.008789,426.897217 
	C710.605652,424.712341 708.519226,422.091675 704.635071,423.528534 
	C703.280518,424.029602 701.787415,424.156158 699.635498,424.232605 
	C698.084534,424.804260 696.533508,425.375916 693.999817,426.306915 
	C693.001526,426.611511 692.003296,426.916077 691.211975,426.466278 
	C691.606018,423.361694 689.931335,423.669067 687.882507,424.386719 
	C676.200073,428.479004 664.106628,431.667816 652.903503,436.801605 
	C631.191223,446.751190 612.146973,460.705688 595.247559,477.742554 
	C578.639282,494.485840 564.942627,513.071045 555.882019,534.898926 
	C555.472473,535.885437 556.924438,537.644653 557.123901,539.709290 
	C556.304993,541.457092 555.059143,543.134888 554.758423,544.967712 
	C554.181824,548.482300 549.490417,551.814941 554.045593,555.665466 
	C554.261963,555.848389 554.401123,556.122559 554.617371,556.305786 
	C554.671204,556.351440 554.922302,556.123413 555.019531,556.165833 
	C555.438232,556.348572 556.032227,556.484314 556.202332,556.819763 
	C556.888000,558.171997 557.440186,559.592041 558.005249,561.796570 
	C557.635559,563.353455 557.488220,565.006348 556.863098,566.452820 
	C546.263672,590.979980 540.635010,616.737305 539.190186,643.270874 
	C537.923767,666.527039 540.091553,689.577820 545.903503,712.297241 
	C559.567139,765.709045 588.272400,808.986145 632.362427,842.014587 
	C661.478577,863.825989 693.954224,877.941772 729.862366,884.191528 
	C749.040588,887.529419 768.245667,889.079773 787.678467,887.089539 
	C792.734985,886.571716 797.846863,886.594910 802.653381,886.812439 
	C802.131775,887.487671 801.610168,888.162903 801.107605,889.589417 
M805.998413,972.500000 
	C805.998413,985.607422 805.998413,998.714844 805.998413,1011.971130 
	C812.327393,1011.641968 818.059692,1011.343933 824.354736,1011.016541 
	C824.354736,993.436768 824.354736,976.141724 824.354736,957.711365 
	C825.979492,959.930298 826.889282,961.097961 827.720398,962.319153 
	C838.423096,978.046021 849.102356,993.788879 859.838867,1009.492615 
	C860.495544,1010.452881 861.592896,1011.818787 862.467529,1011.805725 
	C867.231934,1011.735046 871.990845,1011.290955 877.367188,1010.934631 
	C877.367188,982.657959 877.367188,954.494934 877.367188,926.332397 
	C871.345032,926.332397 865.283203,926.332397 858.740784,926.332397 
	C858.740784,943.978699 858.740784,961.295532 858.740784,979.888794 
	C847.090332,962.675598 836.227661,946.550476 825.244446,930.507935 
	C824.050598,928.764282 822.295898,926.433655 820.567627,926.213928 
	C815.875854,925.617432 811.058411,926.009155 805.998474,926.009155 
	C805.998474,941.570374 805.998474,956.535156 805.998413,972.500000 
M505.949677,955.349609 
	C506.125031,947.435730 504.132507,940.294617 498.764221,934.230530 
	C494.173950,929.045349 488.003448,926.517761 481.600586,926.217163 
	C468.201324,925.588135 454.751984,926.026489 441.303741,926.026489 
	C441.303741,954.964905 441.303741,983.335510 441.303741,1012.003601 
	C447.689362,1011.689392 453.722626,1011.392517 460.217346,1011.072937 
	C460.217346,1000.944397 460.217346,991.199463 460.217346,981.182129 
	C462.677734,981.182129 464.697937,981.446106 466.623138,981.130554 
	C471.559662,980.321350 473.932983,982.468445 475.871979,986.980774 
	C479.134918,994.573914 483.218414,1001.820923 487.118225,1009.127319 
	C487.743317,1010.298462 489.211334,1011.824219 490.283295,1011.819214 
	C496.325439,1011.791077 502.365601,1011.345276 508.920349,1011.016052 
	C502.820221,999.811401 497.033417,989.182251 491.159149,978.392456 
	C500.425598,973.812683 505.317657,966.431396 505.949677,955.349609 
M997.402100,925.998352 
	C985.992676,925.998352 974.583191,925.998352 963.358459,925.998352 
	C963.358459,955.082397 963.358459,983.456299 963.358459,1011.969177 
	C969.640137,1011.666199 975.546936,1011.381287 981.972168,1011.071350 
	C981.972168,1000.958130 981.972168,991.227844 981.972168,981.182129 
	C983.648132,981.182129 984.824890,981.356384 985.932373,981.153381 
	C992.244446,979.995789 995.639832,982.389648 998.139038,988.557129 
	C1001.461609,996.756226 1006.270752,1004.352905 1009.916565,1011.220337 
	C1017.305176,1011.220337 1023.623291,1011.220337 1030.545410,1011.220337 
	C1027.246094,1005.130188 1024.412354,999.882080 1021.562134,994.643005 
	C1018.648682,989.287781 1015.718872,983.941406 1012.704773,978.423523 
	C1013.749939,977.810913 1014.440430,977.373413 1015.159546,976.989624 
	C1032.864746,967.542175 1030.261597,938.520081 1015.962280,930.790100 
	C1010.755676,927.975525 1004.270386,927.526550 997.402100,925.998352 
M1071.408203,942.544128 
	C1083.569824,939.487793 1088.903442,941.613647 1095.012939,951.827759 
	C1095.535156,952.700867 1096.549316,953.858032 1097.366333,953.883667 
	C1103.069214,954.062805 1108.780396,953.978394 1114.778076,953.978394 
	C1113.375977,946.472412 1110.825073,940.417969 1106.010864,935.548828 
	C1097.766724,927.210938 1087.569946,924.333496 1076.063965,924.967834 
	C1061.628906,925.763611 1050.475464,931.800110 1043.648071,944.834290 
	C1038.226196,955.185181 1037.495117,966.025208 1038.770630,977.661438 
	C1040.997192,997.975098 1056.887085,1011.077148 1074.544678,1012.254761 
	C1104.996704,1014.285522 1118.972290,993.474731 1115.237671,965.012512 
	C1103.772095,965.012512 1092.287720,965.008545 1080.803223,965.026611 
	C1080.342896,965.027283 1079.882812,965.236389 1079.291504,965.380249 
	C1079.291504,970.194580 1079.291504,974.913086 1079.291504,980.037659 
	C1082.545288,979.877319 1085.487305,979.673218 1088.432251,979.603760 
	C1091.520142,979.530945 1094.611084,979.587402 1097.773193,979.587402 
	C1096.604492,988.583008 1090.713867,994.682434 1082.525879,995.976624 
	C1073.291382,997.436279 1063.542725,992.566284 1060.010498,984.375793 
	C1056.037109,975.162537 1055.888306,965.649536 1058.867188,956.132446 
	C1060.789062,949.992432 1064.495605,945.270630 1071.408203,942.544128 
M577.483948,925.998291 
	C568.730774,925.998291 559.977539,925.998291 551.301819,925.998291 
	C551.301819,955.051025 551.301819,983.446960 551.301819,1010.898499 
	C564.062744,1010.898499 576.550049,1011.504395 588.953796,1010.744629 
	C604.377808,1009.799805 617.106262,998.989380 620.783386,984.049683 
	C622.385681,977.539795 623.203003,970.532837 622.714844,963.873413 
	C621.580322,948.394470 615.547974,935.122925 600.054321,929.270386 
	C593.399170,926.756531 585.700500,927.004883 577.483948,925.998291 
M923.510864,976.225098 
	C930.986023,976.225098 938.461243,976.225098 946.229614,976.225098 
	C946.479797,970.945557 946.710022,966.088318 946.962219,960.766541 
	C934.264343,960.766541 922.207397,960.766541 910.313599,960.766541 
	C910.313599,954.064026 910.313599,947.810608 910.313599,941.092346 
	C923.377197,941.092346 936.127014,941.092346 948.966919,941.092346 
	C949.333801,935.905701 949.667358,931.189270 950.010437,926.338745 
	C930.410156,926.338745 911.196594,926.338745 891.478333,926.338745 
	C891.170471,955.088867 891.032532,983.491943 891.385437,1011.415955 
	C911.547607,1011.415955 930.308533,1011.415955 949.531250,1011.415955 
	C949.531250,1005.974976 949.531250,1001.108276 949.531250,995.799683 
	C936.284851,995.799683 923.232483,995.799683 910.307190,995.799683 
	C910.307190,989.110718 910.307190,982.858826 910.307190,976.225586 
	C914.578491,976.225586 918.547180,976.225586 923.510864,976.225098 
M733.997986,957.500000 
	C733.997986,975.602539 733.997986,993.705078 733.997986,1011.321533 
	C753.676270,1011.321533 772.723267,1011.321533 791.761658,1011.321533 
	C792.193604,1005.830261 792.571228,1001.028992 792.982422,995.801331 
	C779.251831,995.801331 766.187134,995.801331 753.209045,995.801331 
	C753.209045,989.147034 753.209045,982.896851 753.209045,976.117920 
	C765.232666,976.117920 776.956726,976.117920 788.730347,976.117920 
	C788.730347,970.835205 788.730347,966.092163 788.730347,960.941040 
	C776.731567,960.941040 764.996277,960.941040 753.312683,960.941040 
	C753.312683,954.152832 753.312683,947.788696 753.312683,941.068604 
	C766.321289,941.068604 778.919434,941.068604 791.602905,941.068604 
	C791.602905,935.832886 791.602905,930.972961 791.602905,926.308960 
	C772.278076,926.308960 753.351807,926.308960 733.997803,926.308960 
	C733.997803,936.573547 733.997803,946.536804 733.997986,957.500000 
M635.998169,939.508301 
	C635.998169,963.613403 635.998169,987.718506 635.998169,1011.363708 
	C655.496521,1011.363708 674.402344,1011.363708 693.624023,1011.363708 
	C693.624023,1005.866699 693.624023,1001.005737 693.624023,995.807495 
	C680.333679,995.807495 667.416321,995.807495 654.434204,995.807495 
	C654.434204,989.223877 654.434204,982.982727 654.434204,976.113403 
	C666.593445,976.113403 678.473511,976.113403 690.665955,976.113403 
	C690.665955,970.755188 690.665955,966.027710 690.665955,960.954651 
	C678.484924,960.954651 666.560303,960.954651 654.532349,960.954651 
	C654.532349,954.240601 654.532349,947.876648 654.532349,941.057129 
	C667.672302,941.057129 680.427185,941.057129 693.579346,941.057129 
	C693.579346,935.872498 693.579346,931.142212 693.579346,926.297607 
	C674.402100,926.297607 655.349121,926.297607 635.998230,926.297607 
	C635.998230,930.564514 635.998230,934.538086 635.998169,939.508301 
M415.107788,980.738037 
	C425.370636,975.587341 430.251709,967.003967 430.331116,955.787720 
	C430.436035,940.973877 423.711182,929.305603 410.789337,927.487488 
	C396.241699,925.440613 381.184357,927.016357 366.273987,927.016357 
	C366.273987,954.921509 366.273987,983.288330 366.273987,1011.942993 
	C372.442230,1011.662537 378.318848,1011.395325 384.591827,1011.110046 
	C384.591827,1001.977112 384.591827,993.220093 384.591827,985.260803 
	C394.874664,983.785583 404.628998,982.386169 415.107788,980.738037 
M1146.453735,967.973145 
	C1150.692261,974.939453 1155.249268,981.565552 1154.165649,990.616394 
	C1153.329834,997.598816 1153.999023,1004.761414 1153.999023,1012.000549 
	C1160.628418,1011.686584 1166.546875,1011.406311 1172.895630,1011.105652 
	C1172.895630,1002.248413 1172.815063,993.626526 1172.953979,985.008118 
	C1172.987427,982.935608 1173.275269,980.612610 1174.250610,978.849915 
	C1182.614258,963.733643 1191.144287,948.709229 1199.675415,933.686218 
	C1201.056519,931.254150 1202.687988,928.964111 1204.595337,925.999756 
	C1197.538696,925.999756 1191.544678,925.862976 1185.566406,926.109558 
	C1184.297485,926.161987 1182.609375,927.329346 1181.931885,928.468994 
	C1179.118286,933.202393 1176.591797,938.108032 1174.008667,942.976318 
	C1170.570679,949.455322 1167.177734,955.958313 1163.488525,962.977966 
	C1156.883667,950.386230 1150.589355,938.386414 1144.228882,926.260681 
	C1137.555054,926.260681 1130.529175,926.260681 1123.186890,926.260681 
	C1130.930542,940.179810 1138.486572,953.761719 1146.453735,967.973145 
M517.998230,991.499878 
	C517.998230,998.253723 517.998230,1005.007629 517.998230,1011.969299 
	C524.553711,1011.670715 530.458923,1011.401794 536.672974,1011.118835 
	C536.672974,982.637390 536.672974,954.463135 536.672974,926.330078 
	C530.333313,926.330078 524.277222,926.330078 517.998230,926.330078 
	C517.998230,947.940674 517.998230,969.220276 517.998230,991.499878 
M781.344910,1048.999634 
	C777.931946,1048.999634 774.518982,1048.999634 771.299988,1048.999634 
	C771.299988,1060.734619 771.299988,1071.798706 771.299988,1082.699463 
	C774.014648,1082.699463 776.421753,1082.699463 779.145508,1082.699463 
	C779.145508,1078.646240 779.145508,1074.890625 779.145508,1070.214722 
	C786.100769,1072.255981 786.253113,1078.990479 789.541992,1082.695190 
	C792.413879,1082.695190 795.137390,1082.695190 798.477539,1082.695190 
	C796.598267,1079.437500 794.916809,1076.727417 793.447632,1073.906738 
	C792.405090,1071.905151 790.891174,1070.357178 794.093994,1067.953125 
	C796.819824,1065.907104 797.960022,1061.941406 796.408020,1057.763306 
	C793.883606,1050.967285 791.304749,1049.110107 781.344910,1048.999634 
M904.543884,1074.959473 
	C901.871521,1077.074585 897.881042,1077.784180 896.361267,1075.414062 
	C893.611755,1071.126099 890.186890,1072.046753 886.544617,1072.116333 
	C887.948914,1079.265869 889.837830,1082.055908 894.972717,1082.846436 
	C898.545227,1083.396484 902.524536,1083.772583 905.845398,1082.720947 
	C908.589661,1081.851807 912.023193,1079.127686 912.662170,1076.597168 
	C913.595215,1072.902222 914.554077,1067.799072 909.138550,1065.624512 
	C905.615601,1064.209839 901.929504,1063.190308 898.450012,1061.685059 
	C897.403992,1061.232666 896.426147,1059.836670 896.145020,1058.693848 
	C895.973572,1057.997192 897.129761,1056.251709 897.796143,1056.193237 
	C901.047607,1055.908569 905.005615,1054.635742 905.468140,1059.851807 
	C908.052246,1059.851807 910.354065,1059.851807 913.617432,1059.851807 
	C912.621582,1057.443604 912.051208,1055.349121 910.965454,1053.568970 
	C907.320129,1047.592529 895.466064,1047.485352 890.337891,1052.140869 
	C885.623657,1056.420654 886.311218,1063.095825 891.018799,1066.348633 
	C893.154602,1067.824341 896.175842,1067.947876 898.618225,1069.070435 
	C901.128967,1070.224243 905.343262,1069.546021 904.543884,1074.959473 
M858.812988,1056.002075 
	C860.697449,1056.324341 863.603027,1056.002808 864.284363,1057.083618 
	C866.837891,1061.133667 870.363892,1059.849854 873.808350,1059.865723 
	C871.734436,1048.262573 865.420898,1048.608032 857.443115,1049.101807 
	C852.325867,1049.418457 848.357056,1053.757812 847.999817,1058.322266 
	C847.613831,1063.253296 849.863037,1066.113403 855.650208,1067.997925 
	C857.772888,1068.689087 860.097473,1069.001831 861.990601,1070.082153 
	C863.573669,1070.985352 864.661987,1072.755615 865.969360,1074.141968 
	C864.197266,1075.078491 862.507263,1076.419800 860.622742,1076.801636 
	C859.472168,1077.034668 857.382446,1076.152588 856.818115,1075.150269 
	C854.370911,1070.803345 850.716370,1071.958618 846.209045,1072.326660 
	C847.372314,1074.793091 848.097290,1076.894653 849.269043,1078.707397 
	C852.639099,1083.920166 858.034485,1083.034668 863.102173,1082.996582 
	C868.906433,1082.953003 873.402893,1079.744385 873.997192,1075.256226 
	C874.736389,1069.673828 872.160583,1066.026367 866.237976,1063.967285 
	C862.693787,1062.734985 859.226135,1061.282837 855.260681,1059.750488 
	C856.545959,1057.991699 857.265930,1057.006592 858.812988,1056.002075 
M705.034119,1057.635010 
	C703.049194,1058.737305 703.049133,1058.737305 701.583801,1056.109253 
	C697.173645,1048.199707 697.173645,1048.199707 688.634949,1049.618286 
	C691.308777,1054.164185 694.104065,1058.437500 696.345276,1062.983887 
	C697.141541,1064.599121 697.289978,1067.218628 696.524170,1068.790405 
	C694.237061,1073.484619 691.350769,1077.886963 688.863708,1082.121948 
	C698.958130,1086.805786 699.766541,1076.994873 704.154419,1072.733276 
	C710.375854,1083.895142 711.089661,1084.343750 719.267395,1082.101807 
	C716.603333,1077.961060 714.196655,1073.767456 711.331421,1069.914795 
	C709.165100,1067.002075 709.695190,1064.668457 711.490723,1061.955322 
	C714.181580,1057.889282 716.652649,1053.677856 719.217224,1049.528320 
	C718.962280,1049.111938 718.707336,1048.695557 718.452454,1048.279175 
	C715.319824,1049.101807 711.858398,1049.364746 709.170105,1050.943726 
	C707.370605,1052.000610 706.669067,1054.926636 705.034119,1057.635010 
M819.004272,1061.395996 
	C819.004272,1059.651855 819.004272,1057.907715 819.004272,1055.792969 
	C824.377197,1055.792969 829.121765,1055.792969 833.704468,1055.792969 
	C833.704468,1053.337769 833.704468,1051.270996 833.704468,1049.277954 
	C826.013245,1049.277954 818.620728,1049.277954 811.250244,1049.277954 
	C811.250244,1060.609619 811.250244,1071.660889 811.250244,1082.772705 
	C818.901306,1082.772705 826.299377,1082.772705 833.782959,1082.772705 
	C833.782959,1080.474854 833.782959,1078.408569 833.782959,1075.964355 
	C828.832336,1075.964355 824.081604,1075.964355 819.188660,1075.964355 
	C819.188660,1073.514282 819.188660,1071.448853 819.188660,1069.002197 
	C823.793030,1069.002197 828.213440,1069.002197 832.807556,1069.002197 
	C832.807556,1066.885742 832.807556,1065.150513 832.807556,1063.376465 
	C828.125732,1063.023804 823.587463,1062.682007 819.004272,1061.395996 
M662.741821,1056.004028 
	C667.146179,1056.004028 671.550598,1056.004028 675.826294,1056.004028 
	C675.826294,1053.314087 675.826294,1051.364258 675.826294,1049.341309 
	C668.132141,1049.341309 660.617065,1049.341309 653.312866,1049.341309 
	C653.312866,1060.737671 653.312866,1071.790527 653.312866,1082.716064 
	C661.032410,1082.716064 668.435791,1082.716064 675.716431,1082.716064 
	C675.716431,1080.359253 675.716431,1078.292236 675.716431,1075.850342 
	C670.693909,1075.850342 665.945557,1075.850342 661.243896,1075.850342 
	C661.243896,1073.392212 661.243896,1071.325439 661.243896,1068.904419 
	C665.898071,1068.904419 670.321838,1068.904419 674.772888,1068.904419 
	C674.772888,1066.789795 674.772888,1065.053589 674.772888,1062.946045 
	C670.148987,1062.946045 665.729492,1062.946045 660.667847,1062.946045 
	C661.092163,1060.347900 661.443237,1058.198486 662.741821,1056.004028 
M740.000488,1075.595703 
	C739.361145,1069.500977 744.015625,1072.251831 746.378357,1072.115967 
	C752.570984,1071.759521 757.072815,1068.345947 757.990173,1062.575928 
	C758.913330,1056.769897 755.893616,1051.286499 749.971252,1050.115601 
	C744.165405,1048.967896 738.109314,1049.086060 732.280396,1048.657104 
	C732.280396,1060.715454 732.280396,1071.766113 732.280396,1082.725830 
	C734.974121,1082.725830 737.375122,1082.725830 740.000488,1082.725830 
	C740.000488,1080.487671 740.000488,1078.517090 740.000488,1075.595703 
z"/>
<path fill="#F1F1F1" opacity="1.000000" stroke="none" 
	d="
M802.933350,886.369568 
	C797.846863,886.594910 792.734985,886.571716 787.678467,887.089539 
	C768.245667,889.079773 749.040588,887.529419 729.862366,884.191528 
	C693.954224,877.941772 661.478577,863.825989 632.362427,842.014587 
	C588.272400,808.986145 559.567139,765.709045 545.903503,712.297241 
	C540.091553,689.577820 537.923767,666.527039 539.190186,643.270874 
	C540.635010,616.737305 546.263672,590.979980 556.863098,566.452820 
	C557.488220,565.006348 557.635559,563.353455 558.360107,561.315796 
	C559.764282,559.203064 560.943665,557.639404 561.841431,555.928040 
	C567.020020,546.055969 571.537109,535.780090 577.392639,526.331726 
	C588.988220,507.621307 605.085876,492.779419 621.489990,478.451141 
	C635.221619,466.457123 650.587524,456.700134 666.925354,448.498932 
	C682.964050,440.447968 699.581360,434.041870 717.077393,429.975098 
	C726.372314,428.369659 735.616699,425.915009 744.973999,425.358093 
	C758.949219,424.526367 773.015930,424.655304 787.020447,425.103088 
	C795.977356,425.389496 804.935608,426.703369 813.816650,428.058624 
	C829.949402,430.520508 845.349976,435.601410 860.423279,441.784576 
	C882.728455,450.934235 903.169250,463.313324 921.313110,479.021729 
	C960.120117,512.619629 985.663635,554.419006 997.089355,604.705566 
	C1001.625488,624.670044 1003.643555,644.838928 1002.679688,665.211975 
	C1002.127258,676.887329 1000.204773,688.497864 998.681702,700.853516 
	C998.338074,703.369080 998.211853,705.168701 997.767090,707.114990 
	C997.333435,707.464966 997.218201,707.668335 996.865417,708.060303 
	C996.578979,709.010437 996.530151,709.772034 996.485962,710.910583 
	C995.869568,714.173035 995.248535,717.058411 994.244751,720.088257 
	C993.576660,720.812073 993.196777,721.363953 993.019592,721.974609 
	C987.198181,742.034485 978.758484,760.940552 967.632996,778.598755 
	C954.992188,798.662048 939.766968,816.520630 921.664124,831.930115 
	C902.928955,847.877808 882.444092,860.979370 859.496643,869.879639 
	C846.867493,874.777893 833.844299,878.660034 820.571899,882.991455 
	C814.407776,884.111633 808.670593,885.240601 802.933350,886.369568 
M738.051331,863.093140 
	C738.051331,863.093140 738.132507,863.189331 738.825867,863.085388 
	C739.249512,862.064392 739.673157,861.043335 740.027161,860.055237 
	C740.027161,860.055237 740.074890,860.115723 740.763489,860.086609 
	C756.078491,836.475159 771.405029,812.871155 786.702942,789.248596 
	C793.076904,779.406006 799.389404,769.523560 806.583740,758.330811 
	C801.506287,760.368469 797.871094,761.827332 793.473389,763.244934 
	C784.687622,766.295532 775.989807,769.644775 767.079102,772.271667 
	C762.576111,773.599121 760.389832,775.906555 758.971558,780.345337 
	C749.118774,811.182312 738.974915,841.926208 728.958984,872.711182 
	C728.537292,874.007263 728.457458,875.414673 728.218445,876.770264 
	C728.697266,876.919495 729.176086,877.068787 729.654846,877.218079 
	C732.031250,873.168030 734.407654,869.118042 737.528015,864.992798 
	C737.738525,864.338135 737.948975,863.683472 738.051331,863.093140 
M816.394287,583.714905 
	C816.443054,583.209534 816.491760,582.704102 816.879089,581.338867 
	C817.399963,577.605713 814.677917,578.836609 812.985962,578.952148 
	C800.069153,579.834717 787.158813,580.812317 774.229980,580.965576 
	C775.814087,550.613220 777.402527,520.261108 778.978577,489.908295 
	C779.262512,484.439087 779.495361,478.967224 779.751770,473.496582 
	C779.548523,473.488098 779.337585,473.447845 779.147644,473.494171 
	C779.101746,473.505371 779.125793,473.803040 778.417358,474.091003 
	C777.967957,474.789764 777.481812,475.467804 777.074463,476.190277 
	C753.197937,518.544067 729.323486,560.899170 705.460510,603.260620 
	C700.186035,612.623779 694.954041,622.010864 689.392822,631.939758 
	C691.151672,631.939758 692.112549,631.939758 693.884644,632.097473 
	C711.664246,633.328430 729.443787,634.559387 747.080627,636.566162 
	C736.479614,666.862000 725.878601,697.157776 715.136536,727.856812 
	C716.661194,727.936890 717.931946,728.003601 719.886536,728.418762 
	C731.023804,728.945068 742.167664,729.361206 753.296082,730.033752 
	C761.696350,730.541443 769.873657,730.130554 778.291321,725.957642 
	C794.250244,719.422729 810.217468,712.908020 826.152588,706.315674 
	C827.480713,705.766296 828.591858,704.692566 830.573608,704.036438 
	C835.057129,701.883850 839.585205,699.816162 843.988953,697.511108 
	C844.935364,697.015747 846.185669,695.492188 846.013977,694.731873 
	C844.936462,689.961975 843.496094,685.274048 841.282043,680.202576 
	C827.195740,679.463196 813.109497,678.723877 799.088684,677.188843 
	C802.375854,659.701477 805.726990,642.225769 808.929443,624.722900 
	C811.410889,611.161072 813.706360,597.565186 816.002319,584.008911 
	C816.002319,584.008911 816.028748,584.090515 816.394287,583.714905 
M627.805908,688.016846 
	C631.003784,685.282410 634.201599,682.547974 637.399414,679.813477 
	C637.042847,679.331421 636.686218,678.849365 636.329590,678.367310 
	C633.183228,680.700134 630.036865,683.032898 626.292297,685.767578 
	C615.244934,695.371765 603.832275,704.593933 593.263184,714.698364 
	C584.455627,723.118652 577.205017,732.968811 572.991150,744.659180 
	C567.396240,760.181030 572.144775,773.090149 587.210022,779.853149 
	C595.111267,783.400208 603.846863,785.794006 612.442932,786.961121 
	C643.047607,791.116455 673.279480,786.809937 703.121887,780.462769 
	C770.591858,766.112488 834.178894,741.350586 893.934570,706.916443 
	C920.108887,691.833435 945.000244,674.870239 966.112976,652.983826 
	C975.632141,643.115845 984.344055,632.587341 988.282471,619.037659 
	C992.142944,605.756165 988.056580,594.739136 975.990784,588.017578 
	C970.551636,584.987610 964.485229,582.608093 958.409180,581.278076 
	C929.559143,574.963440 900.882812,578.417847 874.421326,582.810791 
	C885.769531,582.810791 899.243958,582.468689 912.691284,582.924744 
	C922.507446,583.257629 932.162903,585.204529 940.965515,589.969543 
	C952.481995,596.203613 956.976074,606.374023 952.076660,618.472107 
	C949.010010,626.044434 944.490723,633.307983 939.376160,639.714478 
	C927.960632,654.013306 913.529907,665.139954 898.499878,675.410156 
	C853.219910,706.350586 803.627686,728.145386 751.326111,743.967529 
	C715.210938,754.893127 678.536926,762.827087 640.443787,760.924316 
	C629.599915,760.382690 618.918579,758.598694 609.320984,752.982788 
	C599.156616,747.035400 595.178772,737.818298 598.846680,726.674377 
	C600.738708,720.926208 603.412354,715.091187 607.094788,710.354065 
	C613.196777,702.504395 620.398743,695.509827 627.805908,688.016846 
z"/>
<path fill="#EFAF08" opacity="1.000000" stroke="none" 
	d="
M805.998413,972.000000 
	C805.998474,956.535156 805.998474,941.570374 805.998474,926.009155 
	C811.058411,926.009155 815.875854,925.617432 820.567627,926.213928 
	C822.295898,926.433655 824.050598,928.764282 825.244446,930.507935 
	C836.227661,946.550476 847.090332,962.675598 858.740784,979.888794 
	C858.740784,961.295532 858.740784,943.978699 858.740784,926.332397 
	C865.283203,926.332397 871.345032,926.332397 877.367188,926.332397 
	C877.367188,954.494934 877.367188,982.657959 877.367188,1010.934631 
	C871.990845,1011.290955 867.231934,1011.735046 862.467529,1011.805725 
	C861.592896,1011.818787 860.495544,1010.452881 859.838867,1009.492615 
	C849.102356,993.788879 838.423096,978.046021 827.720398,962.319153 
	C826.889282,961.097961 825.979492,959.930298 824.354736,957.711365 
	C824.354736,976.141724 824.354736,993.436768 824.354736,1011.016541 
	C818.059692,1011.343933 812.327393,1011.641968 805.998413,1011.971130 
	C805.998413,998.714844 805.998413,985.607422 805.998413,972.000000 
z"/>
<path fill="#EFAF08" opacity="1.000000" stroke="none" 
	d="
M505.940002,955.799805 
	C505.317657,966.431396 500.425598,973.812683 491.159149,978.392456 
	C497.033417,989.182251 502.820221,999.811401 508.920349,1011.016052 
	C502.365601,1011.345276 496.325439,1011.791077 490.283295,1011.819214 
	C489.211334,1011.824219 487.743317,1010.298462 487.118225,1009.127319 
	C483.218414,1001.820923 479.134918,994.573914 475.871979,986.980774 
	C473.932983,982.468445 471.559662,980.321350 466.623138,981.130554 
	C464.697937,981.446106 462.677734,981.182129 460.217346,981.182129 
	C460.217346,991.199463 460.217346,1000.944397 460.217346,1011.072937 
	C453.722626,1011.392517 447.689362,1011.689392 441.303741,1012.003601 
	C441.303741,983.335510 441.303741,954.964905 441.303741,926.026489 
	C454.751984,926.026489 468.201324,925.588135 481.600586,926.217163 
	C488.003448,926.517761 494.173950,929.045349 498.764221,934.230530 
	C504.132507,940.294617 506.125031,947.435730 505.940002,955.799805 
M465.570862,941.012268 
	C463.803925,941.012268 462.037018,941.012268 460.216705,941.012268 
	C460.216705,949.727539 460.216705,957.829407 460.216705,965.998169 
	C465.048370,965.998169 469.646698,966.040894 474.243958,965.988525 
	C481.939941,965.900879 486.867462,961.907471 486.877777,954.747192 
	C486.888794,947.099731 484.485596,942.724121 476.462372,941.694214 
	C473.175079,941.272278 469.839325,941.228210 465.570862,941.012268 
z"/>
<path fill="#EFAF08" opacity="1.000000" stroke="none" 
	d="
M997.885254,925.998291 
	C1004.270386,927.526550 1010.755676,927.975525 1015.962280,930.790100 
	C1030.261597,938.520081 1032.864746,967.542175 1015.159546,976.989624 
	C1014.440430,977.373413 1013.749939,977.810913 1012.704773,978.423523 
	C1015.718872,983.941406 1018.648682,989.287781 1021.562134,994.643005 
	C1024.412354,999.882080 1027.246094,1005.130188 1030.545410,1011.220337 
	C1023.623291,1011.220337 1017.305176,1011.220337 1009.916565,1011.220337 
	C1006.270752,1004.352905 1001.461609,996.756226 998.139038,988.557129 
	C995.639832,982.389648 992.244446,979.995789 985.932373,981.153381 
	C984.824890,981.356384 983.648132,981.182129 981.972168,981.182129 
	C981.972168,991.227844 981.972168,1000.958130 981.972168,1011.071350 
	C975.546936,1011.381287 969.640137,1011.666199 963.358459,1011.969177 
	C963.358459,983.456299 963.358459,955.082397 963.358459,925.998352 
	C974.583191,925.998352 985.992676,925.998352 997.885254,925.998291 
M981.743652,957.485046 
	C981.743652,960.399231 981.743652,963.313416 981.743652,965.993958 
	C987.715881,965.993958 992.869507,966.214111 997.995300,965.931213 
	C1002.992798,965.655334 1007.629944,961.097595 1007.995789,956.679993 
	C1008.727295,947.845154 1006.445068,943.216675 999.802246,942.077637 
	C994.004456,941.083618 988.030823,941.115479 981.743469,940.666138 
	C981.743469,946.552795 981.743469,951.520020 981.743652,957.485046 
z"/>
<path fill="#EFAF08" opacity="1.000000" stroke="none" 
	d="
M1071.040283,942.683777 
	C1064.495605,945.270630 1060.789062,949.992432 1058.867188,956.132446 
	C1055.888306,965.649536 1056.037109,975.162537 1060.010498,984.375793 
	C1063.542725,992.566284 1073.291382,997.436279 1082.525879,995.976624 
	C1090.713867,994.682434 1096.604492,988.583008 1097.773193,979.587402 
	C1094.611084,979.587402 1091.520142,979.530945 1088.432251,979.603760 
	C1085.487305,979.673218 1082.545288,979.877319 1079.291504,980.037659 
	C1079.291504,974.913086 1079.291504,970.194580 1079.291504,965.380249 
	C1079.882812,965.236389 1080.342896,965.027283 1080.803223,965.026611 
	C1092.287720,965.008545 1103.772095,965.012512 1115.237671,965.012512 
	C1118.972290,993.474731 1104.996704,1014.285522 1074.544678,1012.254761 
	C1056.887085,1011.077148 1040.997192,997.975098 1038.770630,977.661438 
	C1037.495117,966.025208 1038.226196,955.185181 1043.648071,944.834290 
	C1050.475464,931.800110 1061.628906,925.763611 1076.063965,924.967834 
	C1087.569946,924.333496 1097.766724,927.210938 1106.010864,935.548828 
	C1110.825073,940.417969 1113.375977,946.472412 1114.778076,953.978394 
	C1108.780396,953.978394 1103.069214,954.062805 1097.366333,953.883667 
	C1096.549316,953.858032 1095.535156,952.700867 1095.012939,951.827759 
	C1088.903442,941.613647 1083.569824,939.487793 1071.040283,942.683777 
z"/>
<path fill="#EFAF08" opacity="1.000000" stroke="none" 
	d="
M577.979980,925.998291 
	C585.700500,927.004883 593.399170,926.756531 600.054321,929.270386 
	C615.547974,935.122925 621.580322,948.394470 622.714844,963.873413 
	C623.203003,970.532837 622.385681,977.539795 620.783386,984.049683 
	C617.106262,998.989380 604.377808,1009.799805 588.953796,1010.744629 
	C576.550049,1011.504395 564.062744,1010.898499 551.301819,1010.898499 
	C551.301819,983.446960 551.301819,955.051025 551.301819,925.998291 
	C559.977539,925.998291 568.730774,925.998291 577.979980,925.998291 
M604.007507,973.271423 
	C604.007385,969.606812 604.411804,965.887512 603.924805,962.288757 
	C602.831848,954.212097 600.413513,946.282227 591.523376,943.972351 
	C584.506714,942.149292 577.035339,942.076599 569.650879,941.213196 
	C569.650879,960.285278 569.650879,977.869812 569.650879,995.659119 
	C574.090881,995.430542 578.200317,995.034546 582.309021,995.041992 
	C594.775757,995.064453 603.385742,986.895691 604.007507,973.271423 
z"/>
<path fill="#EFAF08" opacity="1.000000" stroke="none" 
	d="
M923.013367,976.225342 
	C918.547180,976.225586 914.578491,976.225586 910.307190,976.225586 
	C910.307190,982.858826 910.307190,989.110718 910.307190,995.799683 
	C923.232483,995.799683 936.284851,995.799683 949.531250,995.799683 
	C949.531250,1001.108276 949.531250,1005.974976 949.531250,1011.415955 
	C930.308533,1011.415955 911.547607,1011.415955 891.385437,1011.415955 
	C891.032532,983.491943 891.170471,955.088867 891.478333,926.338745 
	C911.196594,926.338745 930.410156,926.338745 950.010437,926.338745 
	C949.667358,931.189270 949.333801,935.905701 948.966919,941.092346 
	C936.127014,941.092346 923.377197,941.092346 910.313599,941.092346 
	C910.313599,947.810608 910.313599,954.064026 910.313599,960.766541 
	C922.207397,960.766541 934.264343,960.766541 946.962219,960.766541 
	C946.710022,966.088318 946.479797,970.945557 946.229614,976.225098 
	C938.461243,976.225098 930.986023,976.225098 923.013367,976.225342 
z"/>
<path fill="#EFAF08" opacity="1.000000" stroke="none" 
	d="
M733.997925,957.000000 
	C733.997803,946.536804 733.997803,936.573547 733.997803,926.308960 
	C753.351807,926.308960 772.278076,926.308960 791.602905,926.308960 
	C791.602905,930.972961 791.602905,935.832886 791.602905,941.068604 
	C778.919434,941.068604 766.321289,941.068604 753.312683,941.068604 
	C753.312683,947.788696 753.312683,954.152832 753.312683,960.941040 
	C764.996277,960.941040 776.731567,960.941040 788.730347,960.941040 
	C788.730347,966.092163 788.730347,970.835205 788.730347,976.117920 
	C776.956726,976.117920 765.232666,976.117920 753.209045,976.117920 
	C753.209045,982.896851 753.209045,989.147034 753.209045,995.801331 
	C766.187134,995.801331 779.251831,995.801331 792.982422,995.801331 
	C792.571228,1001.028992 792.193604,1005.830261 791.761658,1011.321533 
	C772.723267,1011.321533 753.676270,1011.321533 733.997986,1011.321533 
	C733.997986,993.705078 733.997986,975.602539 733.997925,957.000000 
z"/>
<path fill="#EFAF08" opacity="1.000000" stroke="none" 
	d="
M635.998169,939.010010 
	C635.998230,934.538086 635.998230,930.564514 635.998230,926.297607 
	C655.349121,926.297607 674.402100,926.297607 693.579346,926.297607 
	C693.579346,931.142212 693.579346,935.872498 693.579346,941.057129 
	C680.427185,941.057129 667.672302,941.057129 654.532349,941.057129 
	C654.532349,947.876648 654.532349,954.240601 654.532349,960.954651 
	C666.560303,960.954651 678.484924,960.954651 690.665955,960.954651 
	C690.665955,966.027710 690.665955,970.755188 690.665955,976.113403 
	C678.473511,976.113403 666.593445,976.113403 654.434204,976.113403 
	C654.434204,982.982727 654.434204,989.223877 654.434204,995.807495 
	C667.416321,995.807495 680.333679,995.807495 693.624023,995.807495 
	C693.624023,1001.005737 693.624023,1005.866699 693.624023,1011.363708 
	C674.402344,1011.363708 655.496521,1011.363708 635.998169,1011.363708 
	C635.998169,987.718506 635.998169,963.613403 635.998169,939.010010 
z"/>
<path fill="#EFAF08" opacity="1.000000" stroke="none" 
	d="
M414.745544,980.862427 
	C404.628998,982.386169 394.874664,983.785583 384.591827,985.260803 
	C384.591827,993.220093 384.591827,1001.977112 384.591827,1011.110046 
	C378.318848,1011.395325 372.442230,1011.662537 366.273987,1011.942993 
	C366.273987,983.288330 366.273987,954.921509 366.273987,927.016357 
	C381.184357,927.016357 396.241699,925.440613 410.789337,927.487488 
	C423.711182,929.305603 430.436035,940.973877 430.331116,955.787720 
	C430.251709,967.003967 425.370636,975.587341 414.745544,980.862427 
M384.589325,944.588501 
	C384.589325,952.643677 384.589325,960.698914 384.589325,969.523804 
	C390.852661,968.971802 396.401581,968.744812 401.861786,967.925964 
	C407.050232,967.147827 410.688965,962.571350 410.996613,957.327698 
	C411.486115,948.983032 408.947388,943.452759 402.983490,942.251770 
	C397.680695,941.183960 392.125061,941.291077 386.673889,941.144348 
	C386.003723,941.126343 385.289551,942.743835 384.589325,944.588501 
z"/>
<path fill="#EFAF08" opacity="1.000000" stroke="none" 
	d="
M1146.248169,967.658386 
	C1138.486572,953.761719 1130.930542,940.179810 1123.186890,926.260681 
	C1130.529175,926.260681 1137.555054,926.260681 1144.228882,926.260681 
	C1150.589355,938.386414 1156.883667,950.386230 1163.488525,962.977966 
	C1167.177734,955.958313 1170.570679,949.455322 1174.008667,942.976318 
	C1176.591797,938.108032 1179.118286,933.202393 1181.931885,928.468994 
	C1182.609375,927.329346 1184.297485,926.161987 1185.566406,926.109558 
	C1191.544678,925.862976 1197.538696,925.999756 1204.595337,925.999756 
	C1202.687988,928.964111 1201.056519,931.254150 1199.675415,933.686218 
	C1191.144287,948.709229 1182.614258,963.733643 1174.250610,978.849915 
	C1173.275269,980.612610 1172.987427,982.935608 1172.953979,985.008118 
	C1172.815063,993.626526 1172.895630,1002.248413 1172.895630,1011.105652 
	C1166.546875,1011.406311 1160.628418,1011.686584 1153.999023,1012.000549 
	C1153.999023,1004.761414 1153.329834,997.598816 1154.165649,990.616394 
	C1155.249268,981.565552 1150.692261,974.939453 1146.248169,967.658386 
z"/>
<path fill="#FFFFFF" opacity="1.000000" stroke="none" 
	d="
M716.917114,429.610809 
	C699.581360,434.041870 682.964050,440.447968 666.925354,448.498932 
	C650.587524,456.700134 635.221619,466.457123 621.489990,478.451141 
	C605.085876,492.779419 588.988220,507.621307 577.392639,526.331726 
	C571.537109,535.780090 567.020020,546.055969 561.841431,555.928040 
	C560.943665,557.639404 559.764282,559.203064 558.378296,560.911011 
	C557.440186,559.592041 556.888000,558.171997 556.202332,556.819763 
	C556.032227,556.484314 555.438232,556.348572 555.019531,556.165833 
	C554.922302,556.123413 554.671204,556.351440 554.617371,556.305786 
	C554.401123,556.122559 554.261963,555.848389 554.045593,555.665466 
	C549.490417,551.814941 554.181824,548.482300 554.758423,544.967712 
	C555.059143,543.134888 556.304993,541.457092 557.637695,539.290649 
	C558.467285,538.489136 558.859314,538.146790 559.088135,537.717529 
	C574.376099,509.040894 595.280518,485.162994 620.686890,465.026886 
	C641.896606,448.216888 665.610352,436.185333 691.005005,427.220673 
	C692.003296,426.916077 693.001526,426.611511 694.843445,426.224548 
	C697.243896,425.579346 698.800720,425.016510 700.357544,424.453705 
	C701.787415,424.156158 703.280518,424.029602 704.635071,423.528534 
	C708.519226,422.091675 710.605652,424.712341 713.008789,426.897217 
	C714.082520,427.873474 715.496948,428.474976 716.917114,429.610809 
z"/>
<path fill="#5A5A5A" opacity="1.000000" stroke="none" 
	d="
M994.627563,719.943848 
	C995.248535,717.058411 995.869568,714.173035 996.755920,710.742493 
	C997.048523,709.422119 997.075806,708.646912 997.103027,707.871643 
	C997.218201,707.668335 997.333435,707.464966 998.108276,707.305908 
	C1000.398193,715.244263 1002.186279,723.113159 1000.044922,731.232483 
	C999.556702,733.083740 999.582031,735.070496 999.370972,736.994873 
	C995.506042,752.270142 988.618713,766.268250 980.779602,779.783691 
	C970.242798,797.950195 957.692993,814.618347 942.741150,829.460999 
	C915.879272,856.126709 884.696472,875.748474 848.192383,887.623901 
	C847.018250,887.996155 846.394775,888.451477 845.771301,888.906860 
	C845.013855,888.990540 844.256470,889.074219 843.047852,888.990784 
	C837.662292,889.765076 832.762939,891.096375 827.784119,891.543518 
	C822.272522,892.038513 816.504822,892.521973 812.249146,887.709229 
	C812.813660,887.301697 813.120972,887.145325 813.443970,887.099609 
	C856.187561,881.047913 893.514954,863.005859 925.799500,834.825073 
	C953.160889,810.941772 973.759583,781.894592 986.694397,747.807129 
	C990.107971,738.811279 992.023926,729.247070 994.627563,719.943848 
z"/>
<path fill="#EFAF08" opacity="1.000000" stroke="none" 
	d="
M517.998230,990.999878 
	C517.998230,969.220276 517.998230,947.940674 517.998230,926.330078 
	C524.277222,926.330078 530.333313,926.330078 536.672974,926.330078 
	C536.672974,954.463135 536.672974,982.637390 536.672974,1011.118835 
	C530.458923,1011.401794 524.553711,1011.670715 517.998230,1011.969299 
	C517.998230,1005.007629 517.998230,998.253723 517.998230,990.999878 
z"/>
<path fill="#5A5A5A" opacity="1.000000" stroke="none" 
	d="
M691.108521,426.843475 
	C665.610352,436.185333 641.896606,448.216888 620.686890,465.026886 
	C595.280518,485.162994 574.376099,509.040894 559.088135,537.717529 
	C558.859314,538.146790 558.467285,538.489136 557.830444,538.958008 
	C556.924438,537.644653 555.472473,535.885437 555.882019,534.898926 
	C564.942627,513.071045 578.639282,494.485840 595.247559,477.742554 
	C612.146973,460.705688 631.191223,446.751190 652.903503,436.801605 
	C664.106628,431.667816 676.200073,428.479004 687.882507,424.386719 
	C689.931335,423.669067 691.606018,423.361694 691.108521,426.843475 
z"/>
<path fill="#FFFFFF" opacity="1.000000" stroke="none" 
	d="
M781.816895,1048.999512 
	C791.304749,1049.110107 793.883606,1050.967285 796.408020,1057.763306 
	C797.960022,1061.941406 796.819824,1065.907104 794.093994,1067.953125 
	C790.891174,1070.357178 792.405090,1071.905151 793.447632,1073.906738 
	C794.916809,1076.727417 796.598267,1079.437500 798.477539,1082.695190 
	C795.137390,1082.695190 792.413879,1082.695190 789.541992,1082.695190 
	C786.253113,1078.990479 786.100769,1072.255981 779.145508,1070.214722 
	C779.145508,1074.890625 779.145508,1078.646240 779.145508,1082.699463 
	C776.421753,1082.699463 774.014648,1082.699463 771.299988,1082.699463 
	C771.299988,1071.798706 771.299988,1060.734619 771.299988,1048.999634 
	C774.518982,1048.999634 777.931946,1048.999634 781.816895,1048.999512 
M788.596069,1061.921509 
	C788.588989,1056.400024 787.323059,1055.623657 779.289917,1056.311279 
	C779.289917,1059.179810 779.289917,1062.054077 779.289917,1066.223511 
	C782.669250,1064.773315 785.337524,1063.628174 788.596069,1061.921509 
z"/>
<path fill="#FFFFFF" opacity="1.000000" stroke="none" 
	d="
M904.754883,1074.620850 
	C905.343262,1069.546021 901.128967,1070.224243 898.618225,1069.070435 
	C896.175842,1067.947876 893.154602,1067.824341 891.018799,1066.348633 
	C886.311218,1063.095825 885.623657,1056.420654 890.337891,1052.140869 
	C895.466064,1047.485352 907.320129,1047.592529 910.965454,1053.568970 
	C912.051208,1055.349121 912.621582,1057.443604 913.617432,1059.851807 
	C910.354065,1059.851807 908.052246,1059.851807 905.468140,1059.851807 
	C905.005615,1054.635742 901.047607,1055.908569 897.796143,1056.193237 
	C897.129761,1056.251709 895.973572,1057.997192 896.145020,1058.693848 
	C896.426147,1059.836670 897.403992,1061.232666 898.450012,1061.685059 
	C901.929504,1063.190308 905.615601,1064.209839 909.138550,1065.624512 
	C914.554077,1067.799072 913.595215,1072.902222 912.662170,1076.597168 
	C912.023193,1079.127686 908.589661,1081.851807 905.845398,1082.720947 
	C902.524536,1083.772583 898.545227,1083.396484 894.972717,1082.846436 
	C889.837830,1082.055908 887.948914,1079.265869 886.544617,1072.116333 
	C890.186890,1072.046753 893.611755,1071.126099 896.361267,1075.414062 
	C897.881042,1077.784180 901.871521,1077.074585 904.754883,1074.620850 
z"/>
<path fill="#FFFFFF" opacity="1.000000" stroke="none" 
	d="
M858.399414,1056.011719 
	C857.265930,1057.006592 856.545959,1057.991699 855.260681,1059.750488 
	C859.226135,1061.282837 862.693787,1062.734985 866.237976,1063.967285 
	C872.160583,1066.026367 874.736389,1069.673828 873.997192,1075.256226 
	C873.402893,1079.744385 868.906433,1082.953003 863.102173,1082.996582 
	C858.034485,1083.034668 852.639099,1083.920166 849.269043,1078.707397 
	C848.097290,1076.894653 847.372314,1074.793091 846.209045,1072.326660 
	C850.716370,1071.958618 854.370911,1070.803345 856.818115,1075.150269 
	C857.382446,1076.152588 859.472168,1077.034668 860.622742,1076.801636 
	C862.507263,1076.419800 864.197266,1075.078491 865.969360,1074.141968 
	C864.661987,1072.755615 863.573669,1070.985352 861.990601,1070.082153 
	C860.097473,1069.001831 857.772888,1068.689087 855.650208,1067.997925 
	C849.863037,1066.113403 847.613831,1063.253296 847.999817,1058.322266 
	C848.357056,1053.757812 852.325867,1049.418457 857.443115,1049.101807 
	C865.420898,1048.608032 871.734436,1048.262573 873.808350,1059.865723 
	C870.363892,1059.849854 866.837891,1061.133667 864.284363,1057.083618 
	C863.603027,1056.002808 860.697449,1056.324341 858.399414,1056.011719 
z"/>
<path fill="#FFFFFF" opacity="1.000000" stroke="none" 
	d="
M705.255188,1057.325684 
	C706.669067,1054.926636 707.370605,1052.000610 709.170105,1050.943726 
	C711.858398,1049.364746 715.319824,1049.101807 718.452454,1048.279175 
	C718.707336,1048.695557 718.962280,1049.111938 719.217224,1049.528320 
	C716.652649,1053.677856 714.181580,1057.889282 711.490723,1061.955322 
	C709.695190,1064.668457 709.165100,1067.002075 711.331421,1069.914795 
	C714.196655,1073.767456 716.603333,1077.961060 719.267395,1082.101807 
	C711.089661,1084.343750 710.375854,1083.895142 704.154419,1072.733276 
	C699.766541,1076.994873 698.958130,1086.805786 688.863708,1082.121948 
	C691.350769,1077.886963 694.237061,1073.484619 696.524170,1068.790405 
	C697.289978,1067.218628 697.141541,1064.599121 696.345276,1062.983887 
	C694.104065,1058.437500 691.308777,1054.164185 688.634949,1049.618286 
	C697.173645,1048.199707 697.173645,1048.199707 701.583801,1056.109253 
	C703.049133,1058.737305 703.049194,1058.737305 705.255188,1057.325684 
z"/>
<path fill="#FFFFFF" opacity="1.000000" stroke="none" 
	d="
M819.026733,1061.868042 
	C823.587463,1062.682007 828.125732,1063.023804 832.807556,1063.376465 
	C832.807556,1065.150513 832.807556,1066.885742 832.807556,1069.002197 
	C828.213440,1069.002197 823.793030,1069.002197 819.188660,1069.002197 
	C819.188660,1071.448853 819.188660,1073.514282 819.188660,1075.964355 
	C824.081604,1075.964355 828.832336,1075.964355 833.782959,1075.964355 
	C833.782959,1078.408569 833.782959,1080.474854 833.782959,1082.772705 
	C826.299377,1082.772705 818.901306,1082.772705 811.250244,1082.772705 
	C811.250244,1071.660889 811.250244,1060.609619 811.250244,1049.277954 
	C818.620728,1049.277954 826.013245,1049.277954 833.704468,1049.277954 
	C833.704468,1051.270996 833.704468,1053.337769 833.704468,1055.792969 
	C829.121765,1055.792969 824.377197,1055.792969 819.004272,1055.792969 
	C819.004272,1057.907715 819.004272,1059.651855 819.026733,1061.868042 
z"/>
<path fill="#FFFFFF" opacity="1.000000" stroke="none" 
	d="
M662.268066,1056.026489 
	C661.443237,1058.198486 661.092163,1060.347900 660.667847,1062.946045 
	C665.729492,1062.946045 670.148987,1062.946045 674.772888,1062.946045 
	C674.772888,1065.053589 674.772888,1066.789795 674.772888,1068.904419 
	C670.321838,1068.904419 665.898071,1068.904419 661.243896,1068.904419 
	C661.243896,1071.325439 661.243896,1073.392212 661.243896,1075.850342 
	C665.945557,1075.850342 670.693909,1075.850342 675.716431,1075.850342 
	C675.716431,1078.292236 675.716431,1080.359253 675.716431,1082.716064 
	C668.435791,1082.716064 661.032410,1082.716064 653.312866,1082.716064 
	C653.312866,1071.790527 653.312866,1060.737671 653.312866,1049.341309 
	C660.617065,1049.341309 668.132141,1049.341309 675.826294,1049.341309 
	C675.826294,1051.364258 675.826294,1053.314087 675.826294,1056.004028 
	C671.550598,1056.004028 667.146179,1056.004028 662.268066,1056.026489 
z"/>
<path fill="#FFFFFF" opacity="1.000000" stroke="none" 
	d="
M740.000488,1076.071167 
	C740.000488,1078.517090 740.000488,1080.487671 740.000488,1082.725830 
	C737.375122,1082.725830 734.974121,1082.725830 732.280396,1082.725830 
	C732.280396,1071.766113 732.280396,1060.715454 732.280396,1048.657104 
	C738.109314,1049.086060 744.165405,1048.967896 749.971252,1050.115601 
	C755.893616,1051.286499 758.913330,1056.769897 757.990173,1062.575928 
	C757.072815,1068.345947 752.570984,1071.759521 746.378357,1072.115967 
	C744.015625,1072.251831 739.361145,1069.500977 740.000488,1076.071167 
M740.003357,1057.747681 
	C740.003357,1060.477905 740.003357,1063.208252 740.003357,1066.500977 
	C742.684326,1065.931152 744.933105,1065.925415 746.622314,1064.950195 
	C748.068115,1064.115601 749.925476,1061.983276 749.708435,1060.760864 
	C749.400879,1059.028564 747.632263,1056.901367 745.973816,1056.247925 
	C744.327759,1055.599243 742.044861,1056.566772 740.003357,1057.747681 
z"/>
<path fill="#040404" opacity="1.000000" stroke="none" 
	d="
M811.999207,888.012146 
	C816.504822,892.521973 822.272522,892.038513 827.784119,891.543518 
	C832.762939,891.096375 837.662292,889.765076 842.701050,889.154541 
	C835.722595,891.349304 828.544983,892.918579 821.582397,895.156555 
	C813.971558,897.602966 807.956848,893.899780 801.667969,890.917847 
	C801.344116,890.764282 801.288269,890.045227 801.487000,889.258301 
	C803.569336,888.716736 805.272278,888.506287 807.393066,888.257202 
	C809.207031,888.149780 810.603149,888.080933 811.999207,888.012146 
z"/>
<path fill="#040404" opacity="1.000000" stroke="none" 
	d="
M999.688965,736.904236 
	C999.582031,735.070496 999.556702,733.083740 1000.044922,731.232483 
	C1002.186279,723.113159 1000.398193,715.244263 998.426758,707.159302 
	C998.211853,705.168701 998.338074,703.369080 998.722290,701.281738 
	C1004.786377,704.066345 1007.202087,708.317627 1005.143921,715.124329 
	C1002.997498,722.222839 1001.684326,729.573303 999.688965,736.904236 
z"/>
<path fill="#5A5A5A" opacity="1.000000" stroke="none" 
	d="
M806.975220,888.295837 
	C805.272278,888.506287 803.569336,888.716736 801.477478,888.882629 
	C801.610168,888.162903 802.131775,887.487671 802.793335,886.591003 
	C808.670593,885.240601 814.407776,884.111633 820.369019,883.300598 
	C816.053711,885.177612 811.514465,886.736755 806.975220,888.295837 
z"/>
<path fill="#5A5A5A" opacity="1.000000" stroke="none" 
	d="
M699.996521,424.343140 
	C698.800720,425.016510 697.243896,425.579346 695.334839,426.044861 
	C696.533508,425.375916 698.084534,424.804260 699.996521,424.343140 
z"/>
<path fill="#040404" opacity="1.000000" stroke="none" 
	d="
M846.106323,888.921143 
	C846.394775,888.451477 847.018250,887.996155 847.836853,887.731873 
	C847.501770,888.260437 846.971558,888.597961 846.106323,888.921143 
z"/>
<path fill="#EFAF08" opacity="1.000000" stroke="none" 
	d="
M829.803772,703.862427 
	C828.591858,704.692566 827.480713,705.766296 826.152588,706.315674 
	C810.217468,712.908020 794.250244,719.422729 777.734131,725.666138 
	C776.208435,724.563354 775.300476,723.166199 774.259094,723.058594 
	C771.820557,722.806458 769.307434,723.063660 766.843262,723.305603 
	C750.960266,724.865173 735.082336,726.476257 719.202698,728.070312 
	C717.931946,728.003601 716.661194,727.936890 715.136536,727.856812 
	C725.878601,697.157776 736.479614,666.862000 747.374329,635.927185 
	C748.491821,632.813171 749.315552,630.338074 750.241821,627.555054 
	C748.921875,627.302734 748.137512,626.976624 747.382629,627.034607 
	C733.994263,628.063904 720.605042,629.088562 707.226257,630.233704 
	C702.494629,630.638733 697.790222,631.361938 693.073425,631.939819 
	C692.112549,631.939758 691.151672,631.939758 689.392822,631.939758 
	C694.954041,622.010864 700.186035,612.623779 705.460510,603.260620 
	C729.323486,560.899170 753.197937,518.544067 777.074463,476.190277 
	C777.481812,475.467804 777.967957,474.789764 778.765381,474.460266 
	C778.756042,476.944794 778.414673,479.062866 778.039124,481.174896 
	C773.372864,507.413727 768.700928,533.651489 764.032166,559.889832 
	C762.707520,567.334473 761.388306,574.779968 759.875427,583.301880 
	C765.171753,582.733765 769.709106,582.247070 774.246460,581.760376 
	C787.158813,580.812317 800.069153,579.834717 812.985962,578.952148 
	C814.677917,578.836609 817.399963,577.605713 816.586182,581.981873 
	C816.205078,583.113403 816.116882,583.601990 816.028748,584.090515 
	C816.028748,584.090515 816.002319,584.008911 815.764954,584.228760 
	C805.352600,615.230530 795.177612,646.012451 784.609192,677.984558 
	C790.169189,677.984558 794.596191,677.984558 799.023193,677.984558 
	C813.109497,678.723877 827.195740,679.463196 841.670898,680.705444 
	C837.974426,688.759705 833.889099,696.311035 829.803772,703.862427 
z"/>
<path fill="#040404" opacity="1.000000" stroke="none" 
	d="
M627.137268,688.154968 
	C620.398743,695.509827 613.196777,702.504395 607.094788,710.354065 
	C603.412354,715.091187 600.738708,720.926208 598.846680,726.674377 
	C595.178772,737.818298 599.156616,747.035400 609.320984,752.982788 
	C618.918579,758.598694 629.599915,760.382690 640.443787,760.924316 
	C678.536926,762.827087 715.210938,754.893127 751.326111,743.967529 
	C803.627686,728.145386 853.219910,706.350586 898.499878,675.410156 
	C913.529907,665.139954 927.960632,654.013306 939.376160,639.714478 
	C944.490723,633.307983 949.010010,626.044434 952.076660,618.472107 
	C956.976074,606.374023 952.481995,596.203613 940.965515,589.969543 
	C932.162903,585.204529 922.507446,583.257629 912.691284,582.924744 
	C899.243958,582.468689 885.769531,582.810791 874.421326,582.810791 
	C900.882812,578.417847 929.559143,574.963440 958.409180,581.278076 
	C964.485229,582.608093 970.551636,584.987610 975.990784,588.017578 
	C988.056580,594.739136 992.142944,605.756165 988.282471,619.037659 
	C984.344055,632.587341 975.632141,643.115845 966.112976,652.983826 
	C945.000244,674.870239 920.108887,691.833435 893.934570,706.916443 
	C834.178894,741.350586 770.591858,766.112488 703.121887,780.462769 
	C673.279480,786.809937 643.047607,791.116455 612.442932,786.961121 
	C603.846863,785.794006 595.111267,783.400208 587.210022,779.853149 
	C572.144775,773.090149 567.396240,760.181030 572.991150,744.659180 
	C577.205017,732.968811 584.455627,723.118652 593.263184,714.698364 
	C603.832275,704.593933 615.244934,695.371765 626.737427,686.016846 
	C627.167419,686.895691 627.152344,687.525330 627.137268,688.154968 
z"/>
<path fill="#EFAF08" opacity="1.000000" stroke="none" 
	d="
M736.784058,865.068054 
	C734.407654,869.118042 732.031250,873.168030 729.654846,877.218079 
	C729.176086,877.068787 728.697266,876.919495 728.218445,876.770264 
	C728.457458,875.414673 728.537292,874.007263 728.958984,872.711182 
	C738.974915,841.926208 749.118774,811.182312 758.971558,780.345337 
	C760.389832,775.906555 762.576111,773.599121 767.079102,772.271667 
	C775.989807,769.644775 784.687622,766.295532 793.793945,763.619019 
	C780.758850,787.478638 767.362488,810.941101 754.069214,834.461853 
	C749.276978,842.941101 744.732483,851.560364 740.074951,860.115723 
	C740.074890,860.115723 740.027161,860.055237 739.744751,860.157471 
	C739.019104,861.236267 738.575806,862.212830 738.132507,863.189331 
	C738.132507,863.189331 738.051331,863.093140 737.819580,863.209839 
	C737.319946,863.907104 737.052002,864.487549 736.784058,865.068054 
z"/>
<path fill="#CBCBCB" opacity="1.000000" stroke="none" 
	d="
M807.393066,888.257202 
	C811.514465,886.736755 816.053711,885.177612 820.795898,883.309387 
	C833.844299,878.660034 846.867493,874.777893 859.496643,869.879639 
	C882.444092,860.979370 902.928955,847.877808 921.664124,831.930115 
	C939.766968,816.520630 954.992188,798.662048 967.632996,778.598755 
	C978.758484,760.940552 987.198181,742.034485 993.019592,721.974609 
	C993.196777,721.363953 993.576660,720.812073 994.244751,720.088257 
	C992.023926,729.247070 990.107971,738.811279 986.694397,747.807129 
	C973.759583,781.894592 953.160889,810.941772 925.799500,834.825073 
	C893.514954,863.005859 856.187561,881.047913 813.443970,887.099609 
	C813.120972,887.145325 812.813660,887.301697 812.249146,887.709229 
	C810.603149,888.080933 809.207031,888.149780 807.393066,888.257202 
z"/>
<path fill="#F14D28" opacity="1.000000" stroke="none" 
	d="
M774.238220,581.362976 
	C769.709106,582.247070 765.171753,582.733765 759.875427,583.301880 
	C761.388306,574.779968 762.707520,567.334473 764.032166,559.889832 
	C768.700928,533.651489 773.372864,507.413727 778.039124,481.174896 
	C778.414673,479.062866 778.756042,476.944794 779.115479,474.399261 
	C779.125793,473.803040 779.101746,473.505371 779.147644,473.494171 
	C779.337585,473.447845 779.548523,473.488098 779.751831,473.496582 
	C779.495361,478.967224 779.262512,484.439087 778.978577,489.908295 
	C777.402527,520.261108 775.814087,550.613220 774.238220,581.362976 
z"/>
<path fill="#F14D28" opacity="1.000000" stroke="none" 
	d="
M799.055908,677.586670 
	C794.596191,677.984558 790.169189,677.984558 784.609192,677.984558 
	C795.177612,646.012451 805.352600,615.230530 815.806030,584.216492 
	C813.706360,597.565186 811.410889,611.161072 808.929443,624.722900 
	C805.726990,642.225769 802.375854,659.701477 799.055908,677.586670 
z"/>
<path fill="#F14D28" opacity="1.000000" stroke="none" 
	d="
M740.419189,860.101196 
	C744.732483,851.560364 749.276978,842.941101 754.069214,834.461853 
	C767.362488,810.941101 780.758850,787.478638 794.175232,763.639648 
	C797.871094,761.827332 801.506287,760.368469 806.583740,758.330811 
	C799.389404,769.523560 793.076904,779.406006 786.702942,789.248596 
	C771.405029,812.871155 756.078491,836.475159 740.419189,860.101196 
z"/>
<path fill="#F14D28" opacity="1.000000" stroke="none" 
	d="
M693.479004,632.018677 
	C697.790222,631.361938 702.494629,630.638733 707.226257,630.233704 
	C720.605042,629.088562 733.994263,628.063904 747.382629,627.034607 
	C748.137512,626.976624 748.921875,627.302734 750.241821,627.555054 
	C749.315552,630.338074 748.491821,632.813171 747.445679,635.539307 
	C729.443787,634.559387 711.664246,633.328430 693.479004,632.018677 
z"/>
<path fill="#F14D28" opacity="1.000000" stroke="none" 
	d="
M719.544617,728.244568 
	C735.082336,726.476257 750.960266,724.865173 766.843262,723.305603 
	C769.307434,723.063660 771.820557,722.806458 774.259094,723.058594 
	C775.300476,723.166199 776.208435,724.563354 777.331543,725.714600 
	C769.873657,730.130554 761.696350,730.541443 753.296082,730.033752 
	C742.167664,729.361206 731.023804,728.945068 719.544617,728.244568 
z"/>
<path fill="#F14D28" opacity="1.000000" stroke="none" 
	d="
M830.188721,703.949463 
	C833.889099,696.311035 837.974426,688.759705 842.117737,680.883667 
	C843.496094,685.274048 844.936462,689.961975 846.013977,694.731873 
	C846.185669,695.492188 844.935364,697.015747 843.988953,697.511108 
	C839.585205,699.816162 835.057129,701.883850 830.188721,703.949463 
z"/>
<path fill="#5A5A5A" opacity="1.000000" stroke="none" 
	d="
M627.471558,688.085938 
	C627.152344,687.525330 627.167419,686.895691 627.036499,685.815857 
	C630.036865,683.032898 633.183228,680.700134 636.329590,678.367310 
	C636.686218,678.849365 637.042847,679.331421 637.399414,679.813477 
	C634.201599,682.547974 631.003784,685.282410 627.471558,688.085938 
z"/>
<path fill="#F14D28" opacity="1.000000" stroke="none" 
	d="
M738.479187,863.137329 
	C738.575806,862.212830 739.019104,861.236267 739.779602,860.140991 
	C739.673157,861.043335 739.249512,862.064392 738.479187,863.137329 
z"/>
<path fill="#CBCBCB" opacity="1.000000" stroke="none" 
	d="
M996.865417,708.060303 
	C997.075806,708.646912 997.048523,709.422119 996.751343,710.365479 
	C996.530151,709.772034 996.578979,709.010437 996.865417,708.060303 
z"/>
<path fill="#F14D28" opacity="1.000000" stroke="none" 
	d="
M737.156006,865.030396 
	C737.052002,864.487549 737.319946,863.907104 737.873657,863.177734 
	C737.948975,863.683472 737.738525,864.338135 737.156006,865.030396 
z"/>
<path fill="#F14D28" opacity="1.000000" stroke="none" 
	d="
M816.211548,583.902710 
	C816.116882,583.601990 816.205078,583.113403 816.416870,582.411804 
	C816.491760,582.704102 816.443054,583.209534 816.211548,583.902710 
z"/>
<path fill="#000000" opacity="1.000000" stroke="none" 
	d="
M466.048218,941.012268 
	C469.839325,941.228210 473.175079,941.272278 476.462372,941.694214 
	C484.485596,942.724121 486.888794,947.099731 486.877777,954.747192 
	C486.867462,961.907471 481.939941,965.900879 474.243958,965.988525 
	C469.646698,966.040894 465.048370,965.998169 460.216705,965.998169 
	C460.216705,957.829407 460.216705,949.727539 460.216705,941.012268 
	C462.037018,941.012268 463.803925,941.012268 466.048218,941.012268 
z"/>
<path fill="#000000" opacity="1.000000" stroke="none" 
	d="
M981.743530,956.986145 
	C981.743469,951.520020 981.743469,946.552795 981.743469,940.666138 
	C988.030823,941.115479 994.004456,941.083618 999.802246,942.077637 
	C1006.445068,943.216675 1008.727295,947.845154 1007.995789,956.679993 
	C1007.629944,961.097595 1002.992798,965.655334 997.995300,965.931213 
	C992.869507,966.214111 987.715881,965.993958 981.743652,965.993958 
	C981.743652,963.313416 981.743652,960.399231 981.743530,956.986145 
z"/>
<path fill="#040404" opacity="1.000000" stroke="none" 
	d="
M604.007568,973.738037 
	C603.385742,986.895691 594.775757,995.064453 582.309021,995.041992 
	C578.200317,995.034546 574.090881,995.430542 569.650879,995.659119 
	C569.650879,977.869812 569.650879,960.285278 569.650879,941.213196 
	C577.035339,942.076599 584.506714,942.149292 591.523376,943.972351 
	C600.413513,946.282227 602.831848,954.212097 603.924805,962.288757 
	C604.411804,965.887512 604.007385,969.606812 604.007568,973.738037 
z"/>
<path fill="#000000" opacity="1.000000" stroke="none" 
	d="
M384.592529,944.095947 
	C385.289551,942.743835 386.003723,941.126343 386.673889,941.144348 
	C392.125061,941.291077 397.680695,941.183960 402.983490,942.251770 
	C408.947388,943.452759 411.486115,948.983032 410.996613,957.327698 
	C410.688965,962.571350 407.050232,967.147827 401.861786,967.925964 
	C396.401581,968.744812 390.852661,968.971802 384.589325,969.523804 
	C384.589325,960.698914 384.589325,952.643677 384.592529,944.095947 
z"/>
<path fill="#000000" opacity="1.000000" stroke="none" 
	d="
M788.300903,1062.202271 
	C785.337524,1063.628174 782.669250,1064.773315 779.289917,1066.223511 
	C779.289917,1062.054077 779.289917,1059.179810 779.289917,1056.311279 
	C787.323059,1055.623657 788.588989,1056.400024 788.300903,1062.202271 
z"/>
<path fill="#000000" opacity="1.000000" stroke="none" 
	d="
M740.022278,1057.286621 
	C742.044861,1056.566772 744.327759,1055.599243 745.973816,1056.247925 
	C747.632263,1056.901367 749.400879,1059.028564 749.708435,1060.760864 
	C749.925476,1061.983276 748.068115,1064.115601 746.622314,1064.950195 
	C744.933105,1065.925415 742.684326,1065.931152 740.003357,1066.500977 
	C740.003357,1063.208252 740.003357,1060.477905 740.022278,1057.286621 
z"/>
</svg>